<svg width="583" height="129" viewBox="0 0 583 129" fill="none" xmlns="http://www.w3.org/2000/svg">
<rect y="0.560059" width="583" height="128" rx="5" fill="#F5F5F5"/>
<mask id="mask0_50_2242" style="mask-type:luminance" maskUnits="userSpaceOnUse" x="260" y="46" width="47" height="28">
<path d="M303.094 46.1082H264.331C262.292 46.1082 260.639 47.7613 260.639 49.8005V69.3278C260.639 71.3671 262.292 73.0202 264.331 73.0202H303.094C305.133 73.0202 306.786 71.3671 306.786 69.3278V49.8005C306.786 47.7613 305.133 46.1082 303.094 46.1082Z" fill="white"/>
</mask>
<g mask="url(#mask0_50_2242)">
<path d="M303.094 46.1082H264.331C262.292 46.1082 260.639 47.7613 260.639 49.8005V69.3278C260.639 71.3671 262.292 73.0202 264.331 73.0202H303.094C305.133 73.0202 306.786 71.3671 306.786 69.3278V49.8005C306.786 47.7613 305.133 46.1082 303.094 46.1082Z" fill="#FAFAFA" stroke="#B3B3B3" stroke-width="3.28205"/>
</g>
<mask id="mask1_50_2242" style="mask-type:luminance" maskUnits="userSpaceOnUse" x="265" y="41" width="47" height="28">
<path d="M307.465 41.7537H268.702C266.663 41.7537 265.01 43.4068 265.01 45.446V64.9734C265.01 67.0126 266.663 68.6657 268.702 68.6657H307.465C309.504 68.6657 311.157 67.0126 311.157 64.9734V45.446C311.157 43.4068 309.504 41.7537 307.465 41.7537Z" fill="white"/>
</mask>
<g mask="url(#mask1_50_2242)">
<path d="M307.465 41.7537H268.702C266.663 41.7537 265.01 43.4068 265.01 45.446V64.9734C265.01 67.0126 266.663 68.6657 268.702 68.6657H307.465C309.504 68.6657 311.157 67.0126 311.157 64.9734V45.446C311.157 43.4068 309.504 41.7537 307.465 41.7537Z" fill="#FAFAFA" stroke="#B3B3B3" stroke-width="3.28205"/>
</g>
<mask id="mask2_50_2242" style="mask-type:luminance" maskUnits="userSpaceOnUse" x="280" y="47" width="17" height="17">
<path d="M288.238 63.4153C292.751 63.4153 296.409 59.7575 296.409 55.2454C296.409 50.7333 292.751 47.0756 288.238 47.0756C283.725 47.0756 280.066 50.7333 280.066 55.2454C280.066 59.7575 283.725 63.4153 288.238 63.4153Z" fill="white"/>
</mask>
<g mask="url(#mask2_50_2242)">
<path d="M288.238 63.4153C292.751 63.4153 296.409 59.7575 296.409 55.2454C296.409 50.7333 292.751 47.0756 288.238 47.0756C283.725 47.0756 280.066 50.7333 280.066 55.2454C280.066 59.7575 283.725 63.4153 288.238 63.4153Z" stroke="#B3B3B3" stroke-width="3.28205"/>
</g>
<path d="M310.455 52.1758C316.388 52.1758 321.199 47.3657 321.199 41.432C321.199 35.4984 316.388 30.6882 310.455 30.6882C304.521 30.6882 299.711 35.4984 299.711 41.432C299.711 47.3657 304.521 52.1758 310.455 52.1758Z" fill="#FAFAFA" stroke="#B3B3B3" stroke-width="1.64103"/>
<path d="M310.455 34.5249V43.8459" stroke="#B3B3B3" stroke-width="1.64103"/>
<path d="M310.401 48.3382C311.037 48.3382 311.552 47.8228 311.552 47.1871C311.552 46.5513 311.037 46.0359 310.401 46.0359C309.765 46.0359 309.25 46.5513 309.25 47.1871C309.25 47.8228 309.765 48.3382 310.401 48.3382Z" fill="#B3B3B3"/>
<path d="M162.589 95.6847V105.56H161.3V95.6847H162.589ZM165.763 95.6847V96.7563H158.133V95.6847H165.763ZM168.293 95.1421V105.56H167.038V95.1421H168.293ZM167.995 101.613L167.472 101.592C167.477 101.09 167.552 100.627 167.696 100.202C167.841 99.7723 168.044 99.3993 168.307 99.0827C168.569 98.7662 168.881 98.5221 169.243 98.3502C169.609 98.1739 170.014 98.0857 170.457 98.0857C170.818 98.0857 171.144 98.1354 171.433 98.2349C171.723 98.3299 171.969 98.4836 172.173 98.6961C172.381 98.9087 172.539 99.1845 172.647 99.5236C172.756 99.8582 172.81 100.267 172.81 100.751V105.56H171.549V100.738C171.549 100.353 171.492 100.046 171.379 99.8153C171.266 99.5801 171.101 99.4106 170.884 99.3066C170.667 99.198 170.4 99.1438 170.084 99.1438C169.772 99.1438 169.487 99.2093 169.229 99.3405C168.976 99.4716 168.757 99.6525 168.571 99.8831C168.39 100.114 168.248 100.378 168.144 100.677C168.044 100.971 167.995 101.283 167.995 101.613ZM176.052 98.2214V105.56H174.791V98.2214H176.052ZM174.696 96.2748C174.696 96.0713 174.757 95.8995 174.879 95.7593C175.006 95.6191 175.191 95.549 175.435 95.549C175.675 95.549 175.858 95.6191 175.984 95.7593C176.116 95.8995 176.181 96.0713 176.181 96.2748C176.181 96.4692 176.116 96.6365 175.984 96.7767C175.858 96.9123 175.675 96.9802 175.435 96.9802C175.191 96.9802 175.006 96.9123 174.879 96.7767C174.757 96.6365 174.696 96.4692 174.696 96.2748ZM182.34 103.613C182.34 103.433 182.299 103.265 182.218 103.112C182.141 102.953 181.98 102.811 181.736 102.684C181.496 102.553 181.135 102.44 180.651 102.345C180.244 102.259 179.875 102.157 179.545 102.04C179.22 101.922 178.942 101.78 178.711 101.613C178.485 101.445 178.311 101.249 178.189 101.023C178.067 100.796 178.006 100.532 178.006 100.229C178.006 99.9396 178.069 99.666 178.196 99.4083C178.327 99.1506 178.51 98.9222 178.745 98.7233C178.985 98.5243 179.272 98.3683 179.606 98.2553C179.941 98.1422 180.314 98.0857 180.725 98.0857C181.313 98.0857 181.815 98.1897 182.231 98.3977C182.647 98.6057 182.966 98.8838 183.188 99.232C183.409 99.5756 183.52 99.9577 183.52 100.378H182.265C182.265 100.175 182.204 99.978 182.082 99.7881C181.964 99.5937 181.79 99.4332 181.56 99.3066C181.334 99.18 181.056 99.1167 180.725 99.1167C180.377 99.1167 180.095 99.1709 179.878 99.2794C179.665 99.3834 179.509 99.5168 179.41 99.6796C179.315 99.8424 179.267 100.014 179.267 100.195C179.267 100.331 179.29 100.453 179.335 100.561C179.385 100.665 179.471 100.763 179.593 100.853C179.715 100.939 179.887 101.02 180.108 101.097C180.33 101.174 180.612 101.251 180.956 101.328C181.557 101.463 182.053 101.626 182.441 101.816C182.83 102.006 183.12 102.239 183.31 102.515C183.499 102.791 183.594 103.125 183.594 103.519C183.594 103.84 183.527 104.133 183.391 104.4C183.26 104.667 183.068 104.898 182.814 105.092C182.566 105.282 182.267 105.431 181.919 105.54C181.576 105.644 181.189 105.696 180.759 105.696C180.113 105.696 179.566 105.58 179.118 105.35C178.67 105.119 178.331 104.821 178.101 104.455C177.87 104.088 177.755 103.702 177.755 103.295H179.016C179.034 103.638 179.134 103.912 179.315 104.115C179.496 104.314 179.717 104.457 179.979 104.543C180.242 104.624 180.502 104.665 180.759 104.665C181.103 104.665 181.39 104.62 181.621 104.529C181.856 104.439 182.034 104.314 182.157 104.156C182.279 103.998 182.34 103.817 182.34 103.613ZM192.961 103.613C192.961 103.433 192.92 103.265 192.839 103.112C192.762 102.953 192.602 102.811 192.357 102.684C192.118 102.553 191.756 102.44 191.272 102.345C190.865 102.259 190.497 102.157 190.167 102.04C189.841 101.922 189.563 101.78 189.332 101.613C189.106 101.445 188.932 101.249 188.81 101.023C188.688 100.796 188.627 100.532 188.627 100.229C188.627 99.9396 188.69 99.666 188.817 99.4083C188.948 99.1506 189.131 98.9222 189.366 98.7233C189.606 98.5243 189.893 98.3683 190.228 98.2553C190.562 98.1422 190.935 98.0857 191.347 98.0857C191.935 98.0857 192.437 98.1897 192.853 98.3977C193.269 98.6057 193.587 98.8838 193.809 99.232C194.031 99.5756 194.141 99.9577 194.141 100.378H192.887C192.887 100.175 192.825 99.978 192.703 99.7881C192.586 99.5937 192.412 99.4332 192.181 99.3066C191.955 99.18 191.677 99.1167 191.347 99.1167C190.999 99.1167 190.716 99.1709 190.499 99.2794C190.287 99.3834 190.131 99.5168 190.031 99.6796C189.936 99.8424 189.889 100.014 189.889 100.195C189.889 100.331 189.911 100.453 189.956 100.561C190.006 100.665 190.092 100.763 190.214 100.853C190.336 100.939 190.508 101.02 190.73 101.097C190.951 101.174 191.234 101.251 191.577 101.328C192.179 101.463 192.674 101.626 193.063 101.816C193.452 102.006 193.741 102.239 193.931 102.515C194.121 102.791 194.216 103.125 194.216 103.519C194.216 103.84 194.148 104.133 194.012 104.4C193.881 104.667 193.689 104.898 193.436 105.092C193.187 105.282 192.889 105.431 192.541 105.54C192.197 105.644 191.81 105.696 191.381 105.696C190.734 105.696 190.187 105.58 189.739 105.35C189.292 105.119 188.953 104.821 188.722 104.455C188.491 104.088 188.376 103.702 188.376 103.295H189.638C189.656 103.638 189.755 103.912 189.936 104.115C190.117 104.314 190.339 104.457 190.601 104.543C190.863 104.624 191.123 104.665 191.381 104.665C191.724 104.665 192.012 104.62 192.242 104.529C192.477 104.439 192.656 104.314 192.778 104.156C192.9 103.998 192.961 103.817 192.961 103.613ZM198.937 98.2214V99.1845H194.969V98.2214H198.937ZM196.312 96.4376H197.566V103.742C197.566 103.991 197.605 104.179 197.682 104.305C197.759 104.432 197.858 104.516 197.98 104.556C198.102 104.597 198.233 104.617 198.374 104.617C198.478 104.617 198.586 104.608 198.699 104.59C198.817 104.568 198.905 104.549 198.964 104.536L198.97 105.56C198.871 105.592 198.74 105.621 198.577 105.648C198.419 105.68 198.227 105.696 198.001 105.696C197.693 105.696 197.41 105.635 197.153 105.513C196.895 105.39 196.689 105.187 196.536 104.902C196.386 104.613 196.312 104.224 196.312 103.736V96.4376ZM199.94 101.972V101.816C199.94 101.287 200.017 100.796 200.171 100.344C200.325 99.8876 200.546 99.492 200.836 99.1573C201.125 98.8182 201.475 98.556 201.887 98.3706C202.298 98.1807 202.76 98.0857 203.271 98.0857C203.786 98.0857 204.25 98.1807 204.661 98.3706C205.077 98.556 205.43 98.8182 205.719 99.1573C206.013 99.492 206.237 99.8876 206.391 100.344C206.544 100.796 206.621 101.287 206.621 101.816V101.972C206.621 102.501 206.544 102.992 206.391 103.444C206.237 103.896 206.013 104.292 205.719 104.631C205.43 104.965 205.079 105.228 204.668 105.418C204.261 105.603 203.8 105.696 203.284 105.696C202.769 105.696 202.305 105.603 201.894 105.418C201.482 105.228 201.13 104.965 200.836 104.631C200.546 104.292 200.325 103.896 200.171 103.444C200.017 102.992 199.94 102.501 199.94 101.972ZM201.195 101.816V101.972C201.195 102.338 201.238 102.684 201.324 103.01C201.41 103.331 201.539 103.616 201.711 103.864C201.887 104.113 202.106 104.31 202.368 104.455C202.631 104.595 202.936 104.665 203.284 104.665C203.628 104.665 203.928 104.595 204.186 104.455C204.448 104.31 204.666 104.113 204.837 103.864C205.009 103.616 205.138 103.331 205.224 103.01C205.314 102.684 205.36 102.338 205.36 101.972V101.816C205.36 101.454 205.314 101.113 205.224 100.792C205.138 100.466 205.007 100.179 204.831 99.9306C204.659 99.6773 204.442 99.4784 204.179 99.3337C203.922 99.189 203.619 99.1167 203.271 99.1167C202.927 99.1167 202.624 99.189 202.362 99.3337C202.104 99.4784 201.887 99.6773 201.711 99.9306C201.539 100.179 201.41 100.466 201.324 100.792C201.238 101.113 201.195 101.454 201.195 101.816ZM209.449 99.3744V105.56H208.195V98.2214H209.416L209.449 99.3744ZM211.742 98.1807L211.735 99.3473C211.631 99.3247 211.532 99.3111 211.437 99.3066C211.346 99.2975 211.242 99.293 211.125 99.293C210.835 99.293 210.58 99.3382 210.358 99.4286C210.137 99.5191 209.949 99.6457 209.795 99.8085C209.642 99.9713 209.52 100.166 209.429 100.392C209.343 100.613 209.287 100.858 209.26 101.124L208.907 101.328C208.907 100.885 208.95 100.469 209.036 100.08C209.126 99.6909 209.264 99.3473 209.449 99.0488C209.635 98.7459 209.87 98.5107 210.155 98.3434C210.444 98.1716 210.788 98.0857 211.186 98.0857C211.276 98.0857 211.38 98.097 211.498 98.1196C211.615 98.1377 211.697 98.1581 211.742 98.1807ZM215.811 105.696C215.301 105.696 214.837 105.61 214.421 105.438C214.01 105.262 213.655 105.015 213.356 104.699C213.062 104.382 212.836 104.007 212.678 103.573C212.52 103.139 212.441 102.664 212.441 102.148V101.864C212.441 101.267 212.529 100.735 212.705 100.27C212.881 99.7994 213.121 99.4015 213.424 99.076C213.727 98.7504 214.071 98.504 214.455 98.3367C214.839 98.1694 215.237 98.0857 215.649 98.0857C216.173 98.0857 216.625 98.1761 217.005 98.357C217.39 98.5379 217.704 98.7911 217.948 99.1167C218.192 99.4377 218.373 99.8175 218.491 100.256C218.608 100.69 218.667 101.165 218.667 101.68V102.243H213.187V101.219H217.412V101.124C217.394 100.799 217.326 100.482 217.209 100.175C217.096 99.8673 216.915 99.614 216.666 99.4151C216.417 99.2161 216.078 99.1167 215.649 99.1167C215.364 99.1167 215.102 99.1777 214.862 99.2998C214.622 99.4173 214.417 99.5937 214.245 99.8288C214.073 100.064 213.939 100.351 213.845 100.69C213.75 101.029 213.702 101.42 213.702 101.864V102.148C213.702 102.497 213.75 102.824 213.845 103.132C213.944 103.435 214.086 103.702 214.272 103.932C214.462 104.163 214.69 104.344 214.957 104.475C215.228 104.606 215.536 104.672 215.879 104.672C216.322 104.672 216.698 104.581 217.005 104.4C217.313 104.219 217.582 103.977 217.812 103.675L218.572 104.278C218.414 104.518 218.212 104.746 217.968 104.963C217.724 105.18 217.423 105.357 217.066 105.492C216.714 105.628 216.295 105.696 215.811 105.696ZM226.514 104.665C226.813 104.665 227.089 104.604 227.342 104.482C227.595 104.36 227.803 104.192 227.966 103.98C228.129 103.763 228.221 103.516 228.244 103.24H229.438C229.415 103.675 229.268 104.079 228.997 104.455C228.73 104.825 228.38 105.126 227.945 105.357C227.511 105.583 227.034 105.696 226.514 105.696C225.963 105.696 225.481 105.598 225.07 105.404C224.663 105.21 224.324 104.943 224.052 104.604C223.785 104.265 223.584 103.876 223.449 103.437C223.317 102.994 223.252 102.526 223.252 102.033V101.748C223.252 101.255 223.317 100.79 223.449 100.351C223.584 99.9079 223.785 99.5168 224.052 99.1777C224.324 98.8386 224.663 98.5718 225.07 98.3774C225.481 98.1829 225.963 98.0857 226.514 98.0857C227.089 98.0857 227.59 98.2033 228.02 98.4384C228.45 98.669 228.786 98.9855 229.031 99.388C229.279 99.7859 229.415 100.238 229.438 100.744H228.244C228.221 100.442 228.135 100.168 227.986 99.9238C227.841 99.6796 227.642 99.4852 227.389 99.3405C227.141 99.1913 226.849 99.1167 226.514 99.1167C226.13 99.1167 225.807 99.1935 225.544 99.3473C225.287 99.4965 225.081 99.7 224.927 99.9577C224.778 100.211 224.669 100.494 224.602 100.806C224.538 101.113 224.507 101.427 224.507 101.748V102.033C224.507 102.354 224.538 102.671 224.602 102.983C224.665 103.295 224.771 103.577 224.92 103.831C225.074 104.084 225.28 104.287 225.538 104.441C225.8 104.59 226.125 104.665 226.514 104.665ZM235.176 104.305V100.527C235.176 100.238 235.117 99.9871 234.999 99.7746C234.886 99.5575 234.714 99.3902 234.484 99.2727C234.253 99.1551 233.968 99.0963 233.629 99.0963C233.313 99.0963 233.035 99.1506 232.795 99.2591C232.56 99.3676 232.374 99.51 232.239 99.6864C232.108 99.8627 232.042 100.053 232.042 100.256H230.787C230.787 99.9939 230.855 99.7339 230.991 99.4761C231.126 99.2184 231.321 98.9855 231.574 98.7775C231.832 98.565 232.139 98.3977 232.497 98.2756C232.858 98.149 233.261 98.0857 233.704 98.0857C234.237 98.0857 234.708 98.1761 235.115 98.357C235.526 98.5379 235.847 98.8114 236.078 99.1777C236.313 99.5394 236.43 99.9939 236.43 100.541V103.959C236.43 104.204 236.451 104.464 236.491 104.739C236.537 105.015 236.602 105.253 236.688 105.452V105.56H235.379C235.316 105.415 235.266 105.223 235.23 104.984C235.194 104.739 235.176 104.513 235.176 104.305ZM235.393 101.111L235.406 101.992H234.138C233.781 101.992 233.462 102.022 233.182 102.081C232.901 102.135 232.666 102.219 232.476 102.332C232.286 102.445 232.142 102.587 232.042 102.759C231.943 102.926 231.893 103.123 231.893 103.349C231.893 103.58 231.945 103.79 232.049 103.98C232.153 104.17 232.309 104.321 232.517 104.434C232.729 104.543 232.989 104.597 233.297 104.597C233.681 104.597 234.02 104.516 234.314 104.353C234.608 104.19 234.841 103.991 235.013 103.756C235.189 103.521 235.284 103.292 235.298 103.071L235.834 103.675C235.802 103.864 235.716 104.075 235.576 104.305C235.436 104.536 235.248 104.757 235.013 104.97C234.782 105.178 234.506 105.352 234.185 105.492C233.869 105.628 233.512 105.696 233.114 105.696C232.616 105.696 232.18 105.598 231.805 105.404C231.434 105.21 231.145 104.95 230.937 104.624C230.733 104.294 230.631 103.925 230.631 103.519C230.631 103.125 230.708 102.779 230.862 102.481C231.016 102.178 231.237 101.927 231.527 101.728C231.816 101.524 232.164 101.371 232.571 101.267C232.978 101.163 233.432 101.111 233.934 101.111H235.393ZM239.659 99.7881V105.56H238.404V98.2214H239.591L239.659 99.7881ZM239.36 101.613L238.838 101.592C238.843 101.09 238.917 100.627 239.062 100.202C239.207 99.7723 239.41 99.3993 239.672 99.0827C239.935 98.7662 240.247 98.5221 240.608 98.3502C240.975 98.1739 241.379 98.0857 241.822 98.0857C242.184 98.0857 242.51 98.1354 242.799 98.2349C243.089 98.3299 243.335 98.4836 243.538 98.6961C243.746 98.9087 243.905 99.1845 244.013 99.5236C244.122 99.8582 244.176 100.267 244.176 100.751V105.56H242.914V100.738C242.914 100.353 242.858 100.046 242.745 99.8153C242.632 99.5801 242.467 99.4106 242.25 99.3066C242.033 99.198 241.766 99.1438 241.449 99.1438C241.137 99.1438 240.853 99.2093 240.595 99.3405C240.342 99.4716 240.122 99.6525 239.937 99.8831C239.756 100.114 239.614 100.378 239.51 100.677C239.41 100.971 239.36 101.283 239.36 101.613ZM246.808 95.1421V96.0103C246.808 96.2816 246.76 96.5687 246.665 96.8716C246.575 97.1701 246.441 97.4595 246.265 97.7398C246.089 98.0156 245.876 98.2575 245.627 98.4655L244.909 97.9704C245.121 97.672 245.282 97.3668 245.39 97.0548C245.503 96.7382 245.56 96.3969 245.56 96.0306V95.1421H246.808ZM251.393 98.2214V99.1845H247.425V98.2214H251.393ZM248.768 96.4376H250.023V103.742C250.023 103.991 250.061 104.179 250.138 104.305C250.215 104.432 250.314 104.516 250.436 104.556C250.558 104.597 250.69 104.617 250.83 104.617C250.934 104.617 251.042 104.608 251.155 104.59C251.273 104.568 251.361 104.549 251.42 104.536L251.427 105.56C251.327 105.592 251.196 105.621 251.033 105.648C250.875 105.68 250.683 105.696 250.457 105.696C250.149 105.696 249.867 105.635 249.609 105.513C249.351 105.39 249.145 105.187 248.992 104.902C248.842 104.613 248.768 104.224 248.768 103.736V96.4376ZM260.637 104.305V100.527C260.637 100.238 260.578 99.9871 260.461 99.7746C260.348 99.5575 260.176 99.3902 259.945 99.2727C259.715 99.1551 259.43 99.0963 259.091 99.0963C258.774 99.0963 258.496 99.1506 258.257 99.2591C258.021 99.3676 257.836 99.51 257.7 99.6864C257.569 99.8627 257.504 100.053 257.504 100.256H256.249C256.249 99.9939 256.317 99.7339 256.452 99.4761C256.588 99.2184 256.782 98.9855 257.036 98.7775C257.293 98.565 257.601 98.3977 257.958 98.2756C258.32 98.149 258.722 98.0857 259.165 98.0857C259.699 98.0857 260.169 98.1761 260.576 98.357C260.988 98.5379 261.309 98.8114 261.539 99.1777C261.774 99.5394 261.892 99.9939 261.892 100.541V103.959C261.892 104.204 261.912 104.464 261.953 104.739C261.998 105.015 262.064 105.253 262.15 105.452V105.56H260.841C260.777 105.415 260.728 105.223 260.691 104.984C260.655 104.739 260.637 104.513 260.637 104.305ZM260.854 101.111L260.868 101.992H259.6C259.242 101.992 258.924 102.022 258.643 102.081C258.363 102.135 258.128 102.219 257.938 102.332C257.748 102.445 257.603 102.587 257.504 102.759C257.404 102.926 257.354 103.123 257.354 103.349C257.354 103.58 257.406 103.79 257.51 103.98C257.614 104.17 257.77 104.321 257.978 104.434C258.191 104.543 258.451 104.597 258.758 104.597C259.143 104.597 259.482 104.516 259.776 104.353C260.07 104.19 260.303 103.991 260.474 103.756C260.651 103.521 260.746 103.292 260.759 103.071L261.295 103.675C261.263 103.864 261.178 104.075 261.037 104.305C260.897 104.536 260.71 104.757 260.474 104.97C260.244 105.178 259.968 105.352 259.647 105.492C259.33 105.628 258.973 105.696 258.575 105.696C258.078 105.696 257.642 105.598 257.266 105.404C256.896 105.21 256.606 104.95 256.398 104.624C256.195 104.294 256.093 103.925 256.093 103.519C256.093 103.125 256.17 102.779 256.324 102.481C256.477 102.178 256.699 101.927 256.988 101.728C257.278 101.524 257.626 101.371 258.033 101.267C258.44 101.163 258.894 101.111 259.396 101.111H260.854ZM266.803 104.665C267.101 104.665 267.377 104.604 267.63 104.482C267.883 104.36 268.091 104.192 268.254 103.98C268.417 103.763 268.509 103.516 268.532 103.24H269.726C269.703 103.675 269.556 104.079 269.285 104.455C269.018 104.825 268.668 105.126 268.234 105.357C267.8 105.583 267.323 105.696 266.803 105.696C266.251 105.696 265.769 105.598 265.358 105.404C264.951 105.21 264.612 104.943 264.34 104.604C264.074 104.265 263.872 103.876 263.737 103.437C263.606 102.994 263.54 102.526 263.54 102.033V101.748C263.54 101.255 263.606 100.79 263.737 100.351C263.872 99.9079 264.074 99.5168 264.34 99.1777C264.612 98.8386 264.951 98.5718 265.358 98.3774C265.769 98.1829 266.251 98.0857 266.803 98.0857C267.377 98.0857 267.879 98.2033 268.308 98.4384C268.738 98.669 269.075 98.9855 269.319 99.388C269.568 99.7859 269.703 100.238 269.726 100.744H268.532C268.509 100.442 268.424 100.168 268.274 99.9238C268.13 99.6796 267.931 99.4852 267.677 99.3405C267.429 99.1913 267.137 99.1167 266.803 99.1167C266.418 99.1167 266.095 99.1935 265.833 99.3473C265.575 99.4965 265.369 99.7 265.215 99.9577C265.066 100.211 264.958 100.494 264.89 100.806C264.827 101.113 264.795 101.427 264.795 101.748V102.033C264.795 102.354 264.827 102.671 264.89 102.983C264.953 103.295 265.059 103.577 265.209 103.831C265.362 104.084 265.568 104.287 265.826 104.441C266.088 104.59 266.414 104.665 266.803 104.665ZM274.073 104.665C274.372 104.665 274.648 104.604 274.901 104.482C275.154 104.36 275.362 104.192 275.525 103.98C275.688 103.763 275.78 103.516 275.803 103.24H276.997C276.974 103.675 276.827 104.079 276.556 104.455C276.289 104.825 275.939 105.126 275.505 105.357C275.07 105.583 274.593 105.696 274.073 105.696C273.522 105.696 273.04 105.598 272.629 105.404C272.222 105.21 271.883 104.943 271.611 104.604C271.345 104.265 271.143 103.876 271.008 103.437C270.877 102.994 270.811 102.526 270.811 102.033V101.748C270.811 101.255 270.877 100.79 271.008 100.351C271.143 99.9079 271.345 99.5168 271.611 99.1777C271.883 98.8386 272.222 98.5718 272.629 98.3774C273.04 98.1829 273.522 98.0857 274.073 98.0857C274.648 98.0857 275.15 98.2033 275.579 98.4384C276.009 98.669 276.346 98.9855 276.59 99.388C276.838 99.7859 276.974 100.238 276.997 100.744H275.803C275.78 100.442 275.694 100.168 275.545 99.9238C275.401 99.6796 275.202 99.4852 274.948 99.3405C274.7 99.1913 274.408 99.1167 274.073 99.1167C273.689 99.1167 273.366 99.1935 273.104 99.3473C272.846 99.4965 272.64 99.7 272.486 99.9577C272.337 100.211 272.229 100.494 272.161 100.806C272.097 101.113 272.066 101.427 272.066 101.748V102.033C272.066 102.354 272.097 102.671 272.161 102.983C272.224 103.295 272.33 103.577 272.48 103.831C272.633 104.084 272.839 104.287 273.097 104.441C273.359 104.59 273.685 104.665 274.073 104.665ZM281.453 105.696C280.942 105.696 280.478 105.61 280.062 105.438C279.651 105.262 279.296 105.015 278.998 104.699C278.704 104.382 278.478 104.007 278.319 103.573C278.161 103.139 278.082 102.664 278.082 102.148V101.864C278.082 101.267 278.17 100.735 278.346 100.27C278.523 99.7994 278.762 99.4015 279.065 99.076C279.368 98.7504 279.712 98.504 280.096 98.3367C280.481 98.1694 280.879 98.0857 281.29 98.0857C281.815 98.0857 282.267 98.1761 282.647 98.357C283.031 98.5379 283.345 98.7911 283.589 99.1167C283.833 99.4377 284.014 99.8175 284.132 100.256C284.249 100.69 284.308 101.165 284.308 101.68V102.243H278.828V101.219H283.053V101.124C283.035 100.799 282.968 100.482 282.85 100.175C282.737 99.8673 282.556 99.614 282.307 99.4151C282.059 99.2161 281.72 99.1167 281.29 99.1167C281.005 99.1167 280.743 99.1777 280.503 99.2998C280.264 99.4173 280.058 99.5937 279.886 99.8288C279.714 100.064 279.581 100.351 279.486 100.69C279.391 101.029 279.343 101.42 279.343 101.864V102.148C279.343 102.497 279.391 102.824 279.486 103.132C279.585 103.435 279.728 103.702 279.913 103.932C280.103 104.163 280.331 104.344 280.598 104.475C280.87 104.606 281.177 104.672 281.521 104.672C281.964 104.672 282.339 104.581 282.647 104.4C282.954 104.219 283.223 103.977 283.454 103.675L284.213 104.278C284.055 104.518 283.854 104.746 283.61 104.963C283.365 105.18 283.065 105.357 282.708 105.492C282.355 105.628 281.937 105.696 281.453 105.696ZM287.028 99.6321V108.382H285.767V98.2214H286.92L287.028 99.6321ZM291.973 101.83V101.972C291.973 102.506 291.909 103.001 291.783 103.457C291.656 103.91 291.471 104.303 291.226 104.638C290.987 104.972 290.691 105.232 290.338 105.418C289.985 105.603 289.581 105.696 289.124 105.696C288.658 105.696 288.247 105.619 287.889 105.465C287.532 105.311 287.229 105.088 286.981 104.794C286.732 104.5 286.533 104.147 286.384 103.736C286.239 103.324 286.14 102.861 286.085 102.345V101.585C286.14 101.043 286.241 100.557 286.391 100.127C286.54 99.6977 286.736 99.3314 286.981 99.0285C287.229 98.721 287.53 98.4881 287.883 98.3299C288.235 98.1671 288.642 98.0857 289.104 98.0857C289.565 98.0857 289.974 98.1761 290.331 98.357C290.688 98.5334 290.989 98.7866 291.233 99.1167C291.477 99.4467 291.661 99.8424 291.783 100.304C291.909 100.76 291.973 101.269 291.973 101.83ZM290.711 101.972V101.83C290.711 101.463 290.673 101.12 290.596 100.799C290.519 100.473 290.399 100.188 290.236 99.9441C290.078 99.6954 289.874 99.501 289.626 99.3608C289.377 99.2161 289.081 99.1438 288.737 99.1438C288.421 99.1438 288.145 99.198 287.91 99.3066C287.679 99.4151 287.482 99.562 287.32 99.7474C287.157 99.9283 287.024 100.136 286.92 100.371C286.82 100.602 286.745 100.842 286.696 101.09V102.847C286.786 103.164 286.913 103.462 287.076 103.742C287.238 104.018 287.455 104.242 287.727 104.414C287.998 104.581 288.339 104.665 288.751 104.665C289.09 104.665 289.382 104.595 289.626 104.455C289.874 104.31 290.078 104.113 290.236 103.864C290.399 103.616 290.519 103.331 290.596 103.01C290.673 102.684 290.711 102.338 290.711 101.972ZM296.646 98.2214V99.1845H292.678V98.2214H296.646ZM294.021 96.4376H295.276V103.742C295.276 103.991 295.314 104.179 295.391 104.305C295.468 104.432 295.567 104.516 295.689 104.556C295.811 104.597 295.943 104.617 296.083 104.617C296.187 104.617 296.295 104.608 296.408 104.59C296.526 104.568 296.614 104.549 296.673 104.536L296.68 105.56C296.58 105.592 296.449 105.621 296.286 105.648C296.128 105.68 295.936 105.696 295.71 105.696C295.402 105.696 295.12 105.635 294.862 105.513C294.604 105.39 294.398 105.187 294.245 104.902C294.095 104.613 294.021 104.224 294.021 103.736V96.4376ZM302.818 99.6321V108.382H301.556V98.2214H302.709L302.818 99.6321ZM307.762 101.83V101.972C307.762 102.506 307.699 103.001 307.572 103.457C307.446 103.91 307.26 104.303 307.016 104.638C306.777 104.972 306.48 105.232 306.128 105.418C305.775 105.603 305.37 105.696 304.914 105.696C304.448 105.696 304.036 105.619 303.679 105.465C303.322 105.311 303.019 105.088 302.77 104.794C302.522 104.5 302.323 104.147 302.173 103.736C302.029 103.324 301.929 102.861 301.875 102.345V101.585C301.929 101.043 302.031 100.557 302.18 100.127C302.329 99.6977 302.526 99.3314 302.77 99.0285C303.019 98.721 303.32 98.4881 303.672 98.3299C304.025 98.1671 304.432 98.0857 304.893 98.0857C305.354 98.0857 305.764 98.1761 306.121 98.357C306.478 98.5334 306.779 98.7866 307.023 99.1167C307.267 99.4467 307.45 99.8424 307.572 100.304C307.699 100.76 307.762 101.269 307.762 101.83ZM306.501 101.972V101.83C306.501 101.463 306.462 101.12 306.385 100.799C306.309 100.473 306.189 100.188 306.026 99.9441C305.868 99.6954 305.664 99.501 305.416 99.3608C305.167 99.2161 304.871 99.1438 304.527 99.1438C304.21 99.1438 303.935 99.198 303.7 99.3066C303.469 99.4151 303.272 99.562 303.109 99.7474C302.947 99.9283 302.813 100.136 302.709 100.371C302.61 100.602 302.535 100.842 302.485 101.09V102.847C302.576 103.164 302.702 103.462 302.865 103.742C303.028 104.018 303.245 104.242 303.516 104.414C303.788 104.581 304.129 104.665 304.541 104.665C304.88 104.665 305.171 104.595 305.416 104.455C305.664 104.31 305.868 104.113 306.026 103.864C306.189 103.616 306.309 103.331 306.385 103.01C306.462 102.684 306.501 102.338 306.501 101.972ZM313.69 104.305V100.527C313.69 100.238 313.631 99.9871 313.514 99.7746C313.401 99.5575 313.229 99.3902 312.998 99.2727C312.768 99.1551 312.483 99.0963 312.144 99.0963C311.827 99.0963 311.549 99.1506 311.31 99.2591C311.074 99.3676 310.889 99.51 310.753 99.6864C310.622 99.8627 310.557 100.053 310.557 100.256H309.302C309.302 99.9939 309.37 99.7339 309.505 99.4761C309.641 99.2184 309.835 98.9855 310.089 98.7775C310.346 98.565 310.654 98.3977 311.011 98.2756C311.373 98.149 311.775 98.0857 312.218 98.0857C312.752 98.0857 313.222 98.1761 313.629 98.357C314.041 98.5379 314.362 98.8114 314.592 99.1777C314.827 99.5394 314.945 99.9939 314.945 100.541V103.959C314.945 104.204 314.965 104.464 315.006 104.739C315.051 105.015 315.117 105.253 315.203 105.452V105.56H313.894C313.83 105.415 313.781 105.223 313.744 104.984C313.708 104.739 313.69 104.513 313.69 104.305ZM313.907 101.111L313.921 101.992H312.652C312.295 101.992 311.976 102.022 311.696 102.081C311.416 102.135 311.181 102.219 310.991 102.332C310.801 102.445 310.656 102.587 310.557 102.759C310.457 102.926 310.407 103.123 310.407 103.349C310.407 103.58 310.459 103.79 310.563 103.98C310.667 104.17 310.823 104.321 311.031 104.434C311.244 104.543 311.504 104.597 311.811 104.597C312.196 104.597 312.535 104.516 312.829 104.353C313.123 104.19 313.356 103.991 313.527 103.756C313.704 103.521 313.799 103.292 313.812 103.071L314.348 103.675C314.316 103.864 314.231 104.075 314.09 104.305C313.95 104.536 313.763 104.757 313.527 104.97C313.297 105.178 313.021 105.352 312.7 105.492C312.383 105.628 312.026 105.696 311.628 105.696C311.131 105.696 310.695 105.598 310.319 105.404C309.948 105.21 309.659 104.95 309.451 104.624C309.248 104.294 309.146 103.925 309.146 103.519C309.146 103.125 309.223 102.779 309.377 102.481C309.53 102.178 309.752 101.927 310.041 101.728C310.331 101.524 310.679 101.371 311.086 101.267C311.493 101.163 311.947 101.111 312.449 101.111H313.907ZM318.872 104.8L320.914 98.2214H322.257L319.313 106.693C319.245 106.874 319.155 107.068 319.042 107.276C318.933 107.489 318.793 107.69 318.621 107.88C318.449 108.07 318.241 108.223 317.997 108.341C317.757 108.463 317.47 108.524 317.136 108.524C317.036 108.524 316.91 108.51 316.756 108.483C316.602 108.456 316.494 108.434 316.43 108.416L316.424 107.398C316.46 107.403 316.516 107.407 316.593 107.412C316.675 107.421 316.731 107.425 316.763 107.425C317.048 107.425 317.289 107.387 317.488 107.31C317.687 107.238 317.855 107.113 317.99 106.937C318.13 106.765 318.25 106.528 318.35 106.225L318.872 104.8ZM317.373 98.2214L319.279 103.919L319.605 105.241L318.702 105.702L316.003 98.2214H317.373ZM324.637 99.6796V105.56H323.376V98.2214H324.569L324.637 99.6796ZM324.379 101.613L323.796 101.592C323.801 101.09 323.866 100.627 323.993 100.202C324.119 99.7723 324.307 99.3993 324.556 99.0827C324.805 98.7662 325.114 98.5221 325.485 98.3502C325.856 98.1739 326.285 98.0857 326.774 98.0857C327.117 98.0857 327.434 98.1354 327.723 98.2349C328.013 98.3299 328.264 98.4814 328.476 98.6894C328.689 98.8974 328.854 99.1641 328.971 99.4897C329.089 99.8153 329.148 100.209 329.148 100.67V105.56H327.893V100.731C327.893 100.347 327.827 100.039 327.696 99.8085C327.57 99.5779 327.389 99.4106 327.154 99.3066C326.918 99.198 326.643 99.1438 326.326 99.1438C325.955 99.1438 325.646 99.2093 325.397 99.3405C325.148 99.4716 324.949 99.6525 324.8 99.8831C324.651 100.114 324.542 100.378 324.474 100.677C324.411 100.971 324.379 101.283 324.379 101.613ZM329.134 100.921L328.293 101.179C328.298 100.776 328.363 100.39 328.49 100.019C328.621 99.648 328.808 99.3179 329.053 99.0285C329.301 98.7391 329.607 98.5107 329.968 98.3434C330.33 98.1716 330.744 98.0857 331.209 98.0857C331.603 98.0857 331.951 98.1377 332.254 98.2417C332.561 98.3457 332.819 98.5062 333.027 98.7233C333.24 98.9358 333.4 99.2093 333.509 99.544C333.617 99.8786 333.672 100.276 333.672 100.738V105.56H332.41V100.724C332.41 100.313 332.344 99.9939 332.213 99.7678C332.087 99.5372 331.906 99.3767 331.671 99.2862C331.44 99.1913 331.164 99.1438 330.843 99.1438C330.567 99.1438 330.323 99.1913 330.111 99.2862C329.898 99.3812 329.72 99.5123 329.575 99.6796C329.43 99.8424 329.319 100.03 329.243 100.243C329.17 100.455 329.134 100.681 329.134 100.921ZM338.616 105.696C338.105 105.696 337.642 105.61 337.226 105.438C336.814 105.262 336.459 105.015 336.161 104.699C335.867 104.382 335.641 104.007 335.482 103.573C335.324 103.139 335.245 102.664 335.245 102.148V101.864C335.245 101.267 335.333 100.735 335.51 100.27C335.686 99.7994 335.926 99.4015 336.229 99.076C336.531 98.7504 336.875 98.504 337.259 98.3367C337.644 98.1694 338.042 98.0857 338.453 98.0857C338.978 98.0857 339.43 98.1761 339.81 98.357C340.194 98.5379 340.508 98.7911 340.752 99.1167C340.997 99.4377 341.178 99.8175 341.295 100.256C341.413 100.69 341.471 101.165 341.471 101.68V102.243H335.991V101.219H340.217V101.124C340.199 100.799 340.131 100.482 340.013 100.175C339.9 99.8673 339.719 99.614 339.471 99.4151C339.222 99.2161 338.883 99.1167 338.453 99.1167C338.168 99.1167 337.906 99.1777 337.666 99.2998C337.427 99.4173 337.221 99.5937 337.049 99.8288C336.877 100.064 336.744 100.351 336.649 100.69C336.554 101.029 336.507 101.42 336.507 101.864V102.148C336.507 102.497 336.554 102.824 336.649 103.132C336.749 103.435 336.891 103.702 337.076 103.932C337.266 104.163 337.495 104.344 337.761 104.475C338.033 104.606 338.34 104.672 338.684 104.672C339.127 104.672 339.502 104.581 339.81 104.4C340.117 104.219 340.386 103.977 340.617 103.675L341.376 104.278C341.218 104.518 341.017 104.746 340.773 104.963C340.529 105.18 340.228 105.357 339.871 105.492C339.518 105.628 339.1 105.696 338.616 105.696ZM344.191 99.7881V105.56H342.936V98.2214H344.123L344.191 99.7881ZM343.893 101.613L343.371 101.592C343.375 101.09 343.45 100.627 343.594 100.202C343.739 99.7723 343.943 99.3993 344.205 99.0827C344.467 98.7662 344.779 98.5221 345.141 98.3502C345.507 98.1739 345.912 98.0857 346.355 98.0857C346.717 98.0857 347.042 98.1354 347.332 98.2349C347.621 98.3299 347.867 98.4836 348.071 98.6961C348.279 98.9087 348.437 99.1845 348.546 99.5236C348.654 99.8582 348.708 100.267 348.708 100.751V105.56H347.447V100.738C347.447 100.353 347.39 100.046 347.277 99.8153C347.164 99.5801 346.999 99.4106 346.782 99.3066C346.565 99.198 346.298 99.1438 345.982 99.1438C345.67 99.1438 345.385 99.2093 345.127 99.3405C344.874 99.4716 344.655 99.6525 344.469 99.8831C344.288 100.114 344.146 100.378 344.042 100.677C343.943 100.971 343.893 101.283 343.893 101.613ZM353.687 98.2214V99.1845H349.719V98.2214H353.687ZM351.062 96.4376H352.317V103.742C352.317 103.991 352.355 104.179 352.432 104.305C352.509 104.432 352.608 104.516 352.73 104.556C352.853 104.597 352.984 104.617 353.124 104.617C353.228 104.617 353.336 104.608 353.449 104.59C353.567 104.568 353.655 104.549 353.714 104.536L353.721 105.56C353.621 105.592 353.49 105.621 353.327 105.648C353.169 105.68 352.977 105.696 352.751 105.696C352.443 105.696 352.161 105.635 351.903 105.513C351.645 105.39 351.44 105.187 351.286 104.902C351.137 104.613 351.062 104.224 351.062 103.736V96.4376ZM359.432 103.613C359.432 103.433 359.391 103.265 359.31 103.112C359.233 102.953 359.072 102.811 358.828 102.684C358.588 102.553 358.227 102.44 357.743 102.345C357.336 102.259 356.967 102.157 356.637 102.04C356.312 101.922 356.034 101.78 355.803 101.613C355.577 101.445 355.403 101.249 355.281 101.023C355.159 100.796 355.098 100.532 355.098 100.229C355.098 99.9396 355.161 99.666 355.287 99.4083C355.419 99.1506 355.602 98.9222 355.837 98.7233C356.076 98.5243 356.364 98.3683 356.698 98.2553C357.033 98.1422 357.406 98.0857 357.817 98.0857C358.405 98.0857 358.907 98.1897 359.323 98.3977C359.739 98.6057 360.058 98.8838 360.279 99.232C360.501 99.5756 360.612 99.9577 360.612 100.378H359.357C359.357 100.175 359.296 99.978 359.174 99.7881C359.056 99.5937 358.882 99.4332 358.652 99.3066C358.426 99.18 358.147 99.1167 357.817 99.1167C357.469 99.1167 357.187 99.1709 356.97 99.2794C356.757 99.3834 356.601 99.5168 356.502 99.6796C356.407 99.8424 356.359 100.014 356.359 100.195C356.359 100.331 356.382 100.453 356.427 100.561C356.477 100.665 356.563 100.763 356.685 100.853C356.807 100.939 356.979 101.02 357.2 101.097C357.422 101.174 357.704 101.251 358.048 101.328C358.649 101.463 359.144 101.626 359.533 101.816C359.922 102.006 360.212 102.239 360.401 102.515C360.591 102.791 360.686 103.125 360.686 103.519C360.686 103.84 360.619 104.133 360.483 104.4C360.352 104.667 360.16 104.898 359.906 105.092C359.658 105.282 359.359 105.431 359.011 105.54C358.667 105.644 358.281 105.696 357.851 105.696C357.205 105.696 356.658 105.58 356.21 105.35C355.762 105.119 355.423 104.821 355.193 104.455C354.962 104.088 354.847 103.702 354.847 103.295H356.108C356.126 103.638 356.226 103.912 356.407 104.115C356.587 104.314 356.809 104.457 357.071 104.543C357.334 104.624 357.594 104.665 357.851 104.665C358.195 104.665 358.482 104.62 358.713 104.529C358.948 104.439 359.126 104.314 359.248 104.156C359.371 103.998 359.432 103.817 359.432 103.613ZM367.035 99.3744V105.56H365.78V98.2214H367.001L367.035 99.3744ZM369.327 98.1807L369.321 99.3473C369.217 99.3247 369.117 99.3111 369.022 99.3066C368.932 99.2975 368.828 99.293 368.71 99.293C368.421 99.293 368.165 99.3382 367.944 99.4286C367.722 99.5191 367.534 99.6457 367.381 99.8085C367.227 99.9713 367.105 100.166 367.014 100.392C366.929 100.613 366.872 100.858 366.845 101.124L366.492 101.328C366.492 100.885 366.535 100.469 366.621 100.08C366.712 99.6909 366.849 99.3473 367.035 99.0488C367.22 98.7459 367.455 98.5107 367.74 98.3434C368.03 98.1716 368.373 98.0857 368.771 98.0857C368.862 98.0857 368.966 98.097 369.083 98.1196C369.201 98.1377 369.282 98.1581 369.327 98.1807ZM371.85 98.2214V105.56H370.589V98.2214H371.85ZM370.494 96.2748C370.494 96.0713 370.555 95.8995 370.677 95.7593C370.804 95.6191 370.989 95.549 371.233 95.549C371.473 95.549 371.656 95.6191 371.783 95.7593C371.914 95.8995 371.979 96.0713 371.979 96.2748C371.979 96.4692 371.914 96.6365 371.783 96.7767C371.656 96.9123 371.473 96.9802 371.233 96.9802C370.989 96.9802 370.804 96.9123 370.677 96.7767C370.555 96.6365 370.494 96.4692 370.494 96.2748ZM378.619 98.2214H379.759V105.404C379.759 106.051 379.628 106.602 379.365 107.059C379.103 107.516 378.737 107.862 378.267 108.097C377.801 108.336 377.263 108.456 376.652 108.456C376.399 108.456 376.101 108.416 375.757 108.334C375.418 108.257 375.083 108.124 374.753 107.934C374.428 107.749 374.154 107.498 373.933 107.181L374.591 106.435C374.898 106.806 375.219 107.064 375.554 107.208C375.893 107.353 376.227 107.425 376.557 107.425C376.955 107.425 377.299 107.351 377.588 107.201C377.878 107.052 378.102 106.831 378.26 106.537C378.423 106.247 378.504 105.89 378.504 105.465V99.8356L378.619 98.2214ZM373.566 101.972V101.83C373.566 101.269 373.632 100.76 373.763 100.304C373.899 99.8424 374.091 99.4467 374.34 99.1167C374.593 98.7866 374.898 98.5334 375.255 98.357C375.612 98.1761 376.015 98.0857 376.463 98.0857C376.924 98.0857 377.326 98.1671 377.67 98.3299C378.018 98.4881 378.312 98.721 378.552 99.0285C378.796 99.3314 378.988 99.6977 379.128 100.127C379.268 100.557 379.365 101.043 379.42 101.585V102.209C379.37 102.748 379.273 103.231 379.128 103.661C378.988 104.091 378.796 104.457 378.552 104.76C378.312 105.063 378.018 105.296 377.67 105.458C377.322 105.617 376.915 105.696 376.449 105.696C376.01 105.696 375.612 105.603 375.255 105.418C374.903 105.232 374.6 104.972 374.346 104.638C374.093 104.303 373.899 103.91 373.763 103.457C373.632 103.001 373.566 102.506 373.566 101.972ZM374.821 101.83V101.972C374.821 102.338 374.857 102.682 374.93 103.003C375.007 103.324 375.122 103.607 375.276 103.851C375.434 104.095 375.635 104.287 375.879 104.427C376.123 104.563 376.415 104.631 376.754 104.631C377.17 104.631 377.514 104.543 377.785 104.366C378.056 104.19 378.271 103.957 378.429 103.668C378.592 103.378 378.719 103.064 378.809 102.725V101.09C378.76 100.842 378.683 100.602 378.579 100.371C378.479 100.136 378.348 99.9283 378.185 99.7474C378.027 99.562 377.83 99.4151 377.595 99.3066C377.36 99.198 377.084 99.1438 376.768 99.1438C376.424 99.1438 376.128 99.2161 375.879 99.3608C375.635 99.501 375.434 99.6954 375.276 99.9441C375.122 100.188 375.007 100.473 374.93 100.799C374.857 101.12 374.821 101.463 374.821 101.83ZM382.919 95.1421V105.56H381.665V95.1421H382.919ZM382.621 101.613L382.099 101.592C382.103 101.09 382.178 100.627 382.323 100.202C382.467 99.7723 382.671 99.3993 382.933 99.0827C383.195 98.7662 383.507 98.5221 383.869 98.3502C384.235 98.1739 384.64 98.0857 385.083 98.0857C385.445 98.0857 385.77 98.1354 386.06 98.2349C386.349 98.3299 386.596 98.4836 386.799 98.6961C387.007 98.9087 387.165 99.1845 387.274 99.5236C387.382 99.8582 387.437 100.267 387.437 100.751V105.56H386.175V100.738C386.175 100.353 386.119 100.046 386.006 99.8153C385.893 99.5801 385.727 99.4106 385.51 99.3066C385.293 99.198 385.027 99.1438 384.71 99.1438C384.398 99.1438 384.113 99.2093 383.855 99.3405C383.602 99.4716 383.383 99.6525 383.198 99.8831C383.017 100.114 382.874 100.378 382.77 100.677C382.671 100.971 382.621 101.283 382.621 101.613ZM392.388 98.2214V99.1845H388.42V98.2214H392.388ZM389.763 96.4376H391.018V103.742C391.018 103.991 391.056 104.179 391.133 104.305C391.21 104.432 391.309 104.516 391.432 104.556C391.554 104.597 391.685 104.617 391.825 104.617C391.929 104.617 392.037 104.608 392.151 104.59C392.268 104.568 392.356 104.549 392.415 104.536L392.422 105.56C392.322 105.592 392.191 105.621 392.028 105.648C391.87 105.68 391.678 105.696 391.452 105.696C391.144 105.696 390.862 105.635 390.604 105.513C390.346 105.39 390.141 105.187 389.987 104.902C389.838 104.613 389.763 104.224 389.763 103.736V96.4376ZM398.56 99.7881V105.56H397.305V98.2214H398.492L398.56 99.7881ZM398.262 101.613L397.739 101.592C397.744 101.09 397.818 100.627 397.963 100.202C398.108 99.7723 398.311 99.3993 398.574 99.0827C398.836 98.7662 399.148 98.5221 399.51 98.3502C399.876 98.1739 400.281 98.0857 400.724 98.0857C401.085 98.0857 401.411 98.1354 401.7 98.2349C401.99 98.3299 402.236 98.4836 402.44 98.6961C402.648 98.9087 402.806 99.1845 402.914 99.5236C403.023 99.8582 403.077 100.267 403.077 100.751V105.56H401.816V100.738C401.816 100.353 401.759 100.046 401.646 99.8153C401.533 99.5801 401.368 99.4106 401.151 99.3066C400.934 99.198 400.667 99.1438 400.351 99.1438C400.039 99.1438 399.754 99.2093 399.496 99.3405C399.243 99.4716 399.023 99.6525 398.838 99.8831C398.657 100.114 398.515 100.378 398.411 100.677C398.311 100.971 398.262 101.283 398.262 101.613ZM404.651 101.972V101.816C404.651 101.287 404.728 100.796 404.881 100.344C405.035 99.8876 405.257 99.492 405.546 99.1573C405.835 98.8182 406.186 98.556 406.597 98.3706C407.009 98.1807 407.47 98.0857 407.981 98.0857C408.496 98.0857 408.96 98.1807 409.371 98.3706C409.787 98.556 410.14 98.8182 410.429 99.1573C410.723 99.492 410.947 99.8876 411.101 100.344C411.255 100.796 411.332 101.287 411.332 101.816V101.972C411.332 102.501 411.255 102.992 411.101 103.444C410.947 103.896 410.723 104.292 410.429 104.631C410.14 104.965 409.79 105.228 409.378 105.418C408.971 105.603 408.51 105.696 407.995 105.696C407.479 105.696 407.016 105.603 406.604 105.418C406.193 105.228 405.84 104.965 405.546 104.631C405.257 104.292 405.035 103.896 404.881 103.444C404.728 102.992 404.651 102.501 404.651 101.972ZM405.905 101.816V101.972C405.905 102.338 405.948 102.684 406.034 103.01C406.12 103.331 406.249 103.616 406.421 103.864C406.597 104.113 406.817 104.31 407.079 104.455C407.341 104.595 407.646 104.665 407.995 104.665C408.338 104.665 408.639 104.595 408.897 104.455C409.159 104.31 409.376 104.113 409.548 103.864C409.72 103.616 409.848 103.331 409.934 103.01C410.025 102.684 410.07 102.338 410.07 101.972V101.816C410.07 101.454 410.025 101.113 409.934 100.792C409.848 100.466 409.717 100.179 409.541 99.9306C409.369 99.6773 409.152 99.4784 408.89 99.3337C408.632 99.189 408.329 99.1167 407.981 99.1167C407.637 99.1167 407.334 99.189 407.072 99.3337C406.814 99.4784 406.597 99.6773 406.421 99.9306C406.249 100.179 406.12 100.466 406.034 100.792C405.948 101.113 405.905 101.454 405.905 101.816ZM414.763 104.258L416.649 98.2214H417.476L417.314 99.4219L415.394 105.56H414.587L414.763 104.258ZM413.495 98.2214L415.103 104.326L415.218 105.56H414.37L412.24 98.2214H413.495ZM419.281 104.278L420.813 98.2214H422.061L419.932 105.56H419.091L419.281 104.278ZM417.66 98.2214L419.504 104.156L419.715 105.56H418.914L416.941 99.4083L416.778 98.2214H417.66ZM422.529 104.895C422.529 104.683 422.595 104.504 422.726 104.36C422.862 104.21 423.056 104.136 423.309 104.136C423.563 104.136 423.755 104.21 423.886 104.36C424.022 104.504 424.089 104.683 424.089 104.895C424.089 105.103 424.022 105.28 423.886 105.424C423.755 105.569 423.563 105.641 423.309 105.641C423.056 105.641 422.862 105.569 422.726 105.424C422.595 105.28 422.529 105.103 422.529 104.895Z" fill="#707070"/>
</svg>
